<svg width="49" height="59" viewBox="0 0 49 59" fill="none" xmlns="http://www.w3.org/2000/svg">
<path d="M6.75174 23.7072C6.75174 18.447 11.0416 14.1832 16.3338 14.1832C21.626 14.1832 25.9159 18.447 25.9159 23.7072C25.9159 28.9672 21.626 33.2311 16.3338 33.2311C11.0416 33.2311 6.75174 28.9673 6.75174 23.7072ZM20.3997 33.8806H12.2685C5.50379 33.8806 0 39.3509 0 46.0737V55.9598L0.025475 56.114L0.712005 56.327C7.16668 58.331 12.7764 59 17.3929 59C26.4096 59 31.6351 56.4443 31.9587 56.282L32.5999 55.9585L32.6675 55.9592V46.0737C32.6675 39.3509 27.1638 33.8806 20.3997 33.8806ZM32.6675 19.0476C37.9594 19.0476 42.2496 14.7838 42.2496 9.52366C42.2496 4.26384 37.9595 0 32.6675 0C27.3757 0 23.0854 4.26384 23.0854 9.52366C23.0855 14.7838 27.3757 19.0476 32.6675 19.0476ZM36.733 19.697H28.602C28.408 19.697 28.2191 19.7172 28.0277 19.7265C28.7628 21.2602 29.187 22.9693 29.187 24.7792C29.187 28.1191 27.7776 31.1314 25.5253 33.2799C30.7955 34.838 34.8241 39.2866 35.741 44.7685C43.5129 44.4311 47.9932 42.2483 48.2912 42.0986L48.9324 41.7751L49 41.7764V31.891C49.0013 25.1677 43.4975 19.697 36.733 19.697Z" fill="white"/>
</svg>
